HIERARCHY
ROOT Hips
{
	OFFSET -3.958830 18.904000 13.208200
	CHANNELS 6 Xposition Yposition Zposition Zrotation Yrotation Xrotation 
	JOINT LHipJoint
	{
		OFFSET 0.000000 0.000000 0.000000
		CHANNELS 3 Zrotation Yrotation Xrotation
		JOINT LeftUpLeg
		{
			OFFSET 1.800000 -1.400000 0.085000
			CHANNELS 3 Zrotation Yrotation Xrotation
			JOINT LeftLeg
			{
				OFFSET 2.215000 -6.000000 0.000000
				CHANNELS 3 Zrotation Yrotation Xrotation
				JOINT LeftFoot
				{
					OFFSET 2.500000 -6.900000 0.000000
					CHANNELS 3 Zrotation Yrotation Xrotation
					JOINT LeftToeBase
					{
						OFFSET 0.200000 -0.500000 1.950000
						CHANNELS 3 Zrotation Yrotation Xrotation
						End Site
						{
							OFFSET 0.000000 0.000000 0.000000
						}
					}
				}
			}
		}
	}
	JOINT RHipJoint
	{
		OFFSET 0.000000 0.000000 0.000000
		CHANNELS 3 Zrotation Yrotation Xrotation
		JOINT RightUpLeg
		{
			OFFSET -1.800000 -1.400000 0.085000
			CHANNELS 3 Zrotation Yrotation Xrotation
			JOINT RightLeg
			{
				OFFSET -2.215000 -6.000000 0.000000
				CHANNELS 3 Zrotation Yrotation Xrotation
				JOINT RightFoot
				{
					OFFSET -2.500000 -6.900000 0.000000
					CHANNELS 3 Zrotation Yrotation Xrotation
					JOINT RightToeBase
					{
						OFFSET -0.200000 -0.500000 1.950000
						CHANNELS 3 Zrotation Yrotation Xrotation
						End Site
						{
							OFFSET 0.000000 0.000000 0.000000
						}
					}
				}
			}
		}
	}
	JOINT LowerBack
	{
		OFFSET 0.000000 0.000000 0.000000
		CHANNELS 3 Zrotation Yrotation Xrotation
		JOINT Spine
		{
			OFFSET -0.087000 1.940000 -0.288900
			CHANNELS 3 Zrotation Yrotation Xrotation
			JOINT Spine1
			{
				OFFSET 0.000000 1.950000 0.060000
				CHANNELS 3 Zrotation Yrotation Xrotation
				JOINT Neck
				{
					OFFSET 0.000000 0.000000 0.000000
					CHANNELS 3 Zrotation Yrotation Xrotation
					JOINT Neck1
					{
						OFFSET 0.000000 1.600000 0.340000
						CHANNELS 3 Zrotation Yrotation Xrotation
						JOINT Head
						{
							OFFSET 0.000000 1.667000 -0.240000
							CHANNELS 3 Zrotation Yrotation Xrotation
							End Site
							{
								OFFSET 0.000000 0.000000 0.000000
							}
						}
					}
				}
				JOINT LeftShoulder
				{
					OFFSET 0.000000 0.000000 0.000000
					CHANNELS 3 Zrotation Yrotation Xrotation
					JOINT LeftArm
					{
						OFFSET 2.700000 1.550000 -0.730000
						CHANNELS 3 Zrotation Yrotation Xrotation
						JOINT LeftForeArm
						{
							OFFSET 5.450000 0.000000 0.000000
							CHANNELS 3 Zrotation Yrotation Xrotation
							JOINT LeftHand
							{
								OFFSET 3.450000 0.000000 0.000000
								CHANNELS 3 Zrotation Yrotation Xrotation
								JOINT LeftHandIndex1
								{
									OFFSET 0.750000 0.000000 0.000000
									CHANNELS 3 Zrotation Yrotation Xrotation
									End Site
									{
										OFFSET 0.000000 0.000000 0.000000
									}
								}
							}
						}
					}
				}
				JOINT RightShoulder
				{
					OFFSET 0.000000 0.000000 0.000000
					CHANNELS 3 Zrotation Yrotation Xrotation
					JOINT RightArm
					{
						OFFSET -2.700000 1.550000 -0.730000
						CHANNELS 3 Zrotation Yrotation Xrotation
						JOINT RightForeArm
						{
							OFFSET -5.450000 0.000000 0.000000
							CHANNELS 3 Zrotation Yrotation Xrotation
							JOINT RightHand
							{
								OFFSET -3.450000 0.000000 0.000000
								CHANNELS 3 Zrotation Yrotation Xrotation
								JOINT RightHandIndex1
								{
									OFFSET -0.750000 0.000000 0.000000
									CHANNELS 3 Zrotation Yrotation Xrotation
									End Site
									{
										OFFSET 0.000000 0.000000 0.000000
									}
								}
							}
						}
					}
				}
			}
		}
	}
}
MOTION
Frames: 13
Frame Time: 0.016667
0.398000 17.732830 -3.638490 -2.051899 0.518985 0.719715 -15.171136 12.339807 2.124057 1.330712 -1.452349 -10.613794 -9.019078 6.946186 15.611944 -0.452343 4.812031 3.168348 -0.224870 -0.435250 -0.352270 18.748716 -8.602528 5.133887 2.394429 13.159931 -53.179308 -11.666731 -4.524101 74.792373 -1.396813 -11.233600 0.770138 -0.004070 0.868220 0.066390 -4.266438 -2.664478 -7.941287 13.130235 -5.607535 9.358504 -6.289531 -4.027481 2.153575 0.598235 -4.904174 -4.374065 -10.533295 4.339992 29.194788 -3.457700 2.026980 5.893210 -26.149696 -1.779028 -2.054171 -44.366062 -14.221392 -0.205561 -26.037186 -37.409384 7.300735 -4.303597 3.077162 0.030410 0.598840 -0.588730 0.168180 24.235176 2.120825 2.104330 53.355415 -0.567212 -6.669980 10.521660 14.237265 -0.701942 2.176893 -1.272864 -0.492760 0.389900 0.368880 -0.041610 
0.406340 17.740300 -3.643750 -2.163918 -0.128131 0.551941 -15.160372 12.316491 2.114468 1.354594 -1.463153 -10.598938 -9.010261 6.985786 15.835027 -0.478926 4.834215 3.150944 -0.217240 -0.436440 -0.336100 18.763217 -8.556628 5.222413 2.496117 13.581991 -53.599663 -11.701270 -4.508872 75.476163 -1.435995 -11.326383 0.744765 -0.001850 0.850580 0.060380 -4.301550 -2.653603 -8.007376 13.456362 -5.513986 9.885070 -6.266194 -3.819303 2.134795 0.583005 -5.034591 -4.558654 -10.898350 4.374340 29.689971 -3.551990 2.041990 5.356920 -26.316766 -2.290713 -1.938159 -43.834596 -14.346506 -0.346356 -26.274598 -38.846614 7.686316 -4.285901 3.061165 0.066440 0.582150 -0.575100 0.159040 24.391576 2.766054 2.333140 52.999381 -0.379043 -6.547525 10.276882 14.013072 -0.686490 2.165679 -1.250570 -0.504990 0.401110 0.374500 -0.059710 
0.421090 17.757770 -3.651050 -2.553835 -1.186744 0.124230 -15.129237 12.292487 2.096003 1.660807 -1.515140 -10.617629 -9.004729 7.133790 16.579778 -0.478580 4.873895 3.111338 -0.177330 -0.397780 -0.288010 18.792608 -8.511486 5.358753 2.918601 14.275040 -53.983147 -11.936478 -4.368356 76.663556 -1.524392 -11.467407 0.706241 0.004790 0.790170 0.052490 -4.385549 -2.610088 -8.122926 14.308291 -5.475921 10.969841 -6.414298 -3.535993 2.084756 0.632783 -5.240739 -5.000857 -11.560684 4.504438 30.873399 -3.473110 2.119690 4.213710 -26.496612 -3.286470 -1.606220 -42.785872 -14.354485 -0.788456 -26.917031 -41.864276 8.586690 -4.219297 3.059324 0.121140 0.529900 -0.522670 0.152330 24.397303 3.978380 2.791209 52.691207 -0.053651 -6.379205 9.300426 13.583605 -0.692308 2.173864 -1.219018 -0.493140 0.403840 0.353040 -0.078010 
0.433060 17.774700 -3.654460 -3.256158 -2.734521 0.019405 -15.085325 12.198530 2.055132 2.387447 -1.653376 -11.028894 -9.362548 7.407148 17.358299 -0.471767 4.971046 3.057152 -0.167810 -0.391380 -0.270010 18.846262 -8.452462 5.522983 3.930504 15.388727 -54.132446 -12.210249 -4.033184 77.686898 -1.586546 -11.600271 0.668829 0.004810 0.762560 0.048560 -4.528389 -2.440596 -8.202464 15.697224 -5.280977 11.584608 -6.743670 -3.048839 2.197112 0.692963 -5.353428 -5.316814 -11.867340 4.533011 31.537145 -3.439860 2.227020 3.964510 -26.884108 -4.197701 -1.355279 -41.374922 -14.523356 -1.117735 -27.592380 -45.639868 9.808435 -4.190074 3.081314 0.139610 0.509030 -0.506560 0.141650 24.540722 5.029557 3.211743 52.057239 0.286241 -6.078000 8.478680 13.265186 -0.698007 2.178294 -1.213426 -0.489560 0.397370 0.350400 -0.089390 
0.444530 17.802780 -3.663120 -4.148331 -4.803313 -0.181432 -15.032929 12.108720 2.033888 3.444666 -1.800045 -11.584652 -9.986399 7.814845 18.295604 -0.456077 5.105499 2.971294 -0.138820 -0.366640 -0.221020 18.900927 -8.407474 5.689483 6.037161 16.779756 -53.115266 -13.079851 -2.999443 78.284988 -1.663231 -11.625703 0.662122 0.002290 0.697130 0.048680 -4.687366 -2.244786 -8.306171 17.476505 -5.067243 12.614805 -7.277019 -2.394684 2.252913 0.876335 -5.572730 -5.833842 -12.519412 4.712338 32.822085 -3.633050 2.603920 3.025790 -27.267316 -5.268406 -0.973077 -39.804809 -14.319114 -1.731495 -28.693225 -50.373435 11.458367 -4.132798 3.102075 0.186300 0.461230 -0.456450 0.122420 24.415460 6.400588 3.805897 51.779238 0.635180 -5.916785 7.519755 13.157009 -0.675448 2.187678 -1.192246 -0.472650 0.383240 0.336420 -0.111240 
0.457940 17.833600 -3.656460 -5.157630 -6.381645 -0.367994 -14.997719 11.979575 1.959373 4.487535 -1.725210 -11.143734 -10.552001 8.016654 18.022177 -0.462602 5.162373 2.926773 -0.102960 -0.335720 -0.168780 18.964504 -8.262633 5.935742 7.605363 18.448056 -53.323022 -13.646385 -2.545089 80.581168 -1.808335 -11.954034 0.572108 0.011650 0.634120 0.042000 -4.843228 -2.089521 -8.414038 19.385072 -5.140639 13.415602 -7.842991 -1.998304 2.382108 1.046416 -5.819382 -6.216873 -13.217312 4.858655 33.961679 -3.924820 2.931320 1.942830 -27.361625 -5.891043 -0.688438 -38.629094 -14.195761 -2.083285 -30.258859 -55.135864 13.491357 -4.078690 3.119271 0.238060 0.414500 -0.411280 0.107460 24.051071 7.260609 4.173035 51.654467 1.034312 -5.732190 6.573698 12.987009 -0.662814 2.191948 -1.172851 -0.467050 0.377720 0.319310 -0.137850 
0.458370 17.877610 -3.657030 -5.804614 -8.308610 -0.786020 -14.987701 11.904539 1.914146 5.269395 -1.643854 -10.824974 -10.951731 8.242397 18.112946 -0.457859 5.217281 2.881399 -0.057770 -0.289180 -0.111120 18.993153 -8.114380 6.175404 9.009710 20.051172 -53.079073 -14.111625 -2.107042 82.917482 -1.968275 -12.264530 0.497547 0.021760 0.561290 0.029340 -4.914829 -2.037795 -8.559663 20.394920 -5.013768 14.751016 -8.049882 -1.421544 2.517629 1.213410 -5.983935 -6.810743 -14.018118 5.275826 35.860463 -3.994620 3.436600 0.543060 -27.234331 -6.766124 -0.261092 -37.704713 -14.000822 -2.592227 -31.374445 -59.859041 15.330309 -4.005467 3.116648 0.305340 0.352710 -0.346750 0.100970 23.563592 8.487164 4.688213 51.603445 1.413292 -5.659169 5.994521 13.029493 -0.611386 2.196583 -1.140248 -0.458440 0.382870 0.291250 -0.162060 
0.448350 17.923690 -3.663310 -6.572447 -10.044860 -0.804998 -14.989996 11.794755 1.838662 6.146107 -1.534222 -10.409002 -11.282778 8.311658 17.576628 -0.455769 5.210036 2.860003 -0.008210 -0.238360 -0.051040 19.027750 -7.905957 6.450959 10.430058 21.866998 -53.362472 -14.519192 -1.690661 85.112164 -2.114594 -12.561418 0.415816 0.035080 0.495280 0.033880 -4.990112 -2.001232 -8.677270 21.480368 -4.961899 15.716109 -8.174598 -0.937514 2.738777 1.256011 -6.352579 -7.237342 -15.096077 5.725737 36.958821 -4.221050 3.895900 -0.860380 -26.863165 -7.185505 0.016140 -37.263658 -14.221686 -2.705851 -32.530043 -64.388827 17.301641 -3.954292 3.133226 0.349740 0.302830 -0.288580 0.092970 23.076052 9.323012 5.011418 51.564295 1.826553 -5.576229 5.471898 13.180621 -0.583057 2.204793 -1.127700 -0.435720 0.373750 0.263790 -0.178780 
0.437470 17.995650 -3.668720 -7.100394 -11.895729 -1.308848 -14.989608 11.766043 1.811225 6.773754 -1.269416 -9.186333 -11.390013 8.090819 16.030300 -0.483681 5.095354 2.873491 0.049520 -0.178540 0.020620 19.038196 -7.798256 6.629899 11.672936 23.110998 -52.358393 -14.630663 -1.376563 86.150964 -2.220655 -12.646545 0.391435 0.052570 0.406010 0.027930 -5.029284 -1.971202 -8.790590 22.208174 -4.949098 17.293681 -8.429340 -0.435333 2.932663 1.416460 -6.640284 -7.828131 -16.312112 6.391041 39.170290 -4.533340 4.450590 -2.981480 -27.103016 -8.138185 0.465574 -36.112460 -14.010275 -3.075542 -34.221341 -69.157925 19.772021 -3.889350 3.125972 0.425390 0.232690 -0.213460 0.075660 22.999749 10.759090 5.429047 51.274656 2.755787 -5.037934 4.563463 11.887376 -0.529601 2.222641 -1.086764 -0.419450 0.374370 0.238940 -0.209230 
0.438630 18.068780 -3.664100 -7.845277 -13.570539 -1.656032 -14.982668 11.707285 1.777162 7.319142 -1.031639 -7.752701 -11.308407 7.747223 14.195226 -0.525976 4.972040 2.895827 0.093550 -0.135310 0.073630 19.063350 -7.701248 6.784848 12.921589 24.199757 -51.525616 -14.955750 -0.998658 87.042962 -2.312186 -12.727265 0.370707 0.067890 0.332530 0.018220 -5.111019 -1.886611 -8.857112 23.558269 -5.150252 18.409891 -9.055588 -0.066058 3.395094 1.678682 -6.959805 -8.489565 -17.680968 7.162817 41.442737 -4.718070 4.839670 -4.943500 -26.807888 -9.028716 1.002448 -35.799256 -14.002354 -3.346772 -34.534732 -73.615275 21.243729 -3.834095 3.098686 0.501460 0.171380 -0.153340 0.056680 22.189943 12.052780 5.843116 51.510943 3.683213 -4.643450 3.788476 11.002026 -0.464033 2.227404 -1.043546 -0.415330 0.382970 0.229270 -0.240360 
0.443900 18.135050 -3.649430 -8.317819 -15.012070 -1.625344 -14.972566 11.643160 1.756316 7.317651 -0.875980 -6.714709 -10.958701 7.339530 12.617653 -0.558361 4.841509 2.945531 0.116120 -0.118650 0.095140 19.088966 -7.661893 6.874098 13.404855 24.891428 -51.051376 -14.970542 -0.903324 87.581469 -2.365682 -12.776152 0.359724 0.075620 0.308130 0.016050 -5.202467 -1.754823 -8.873224 24.732761 -5.201418 18.889580 -9.800408 0.284857 3.868328 1.867356 -7.193434 -9.011339 -18.685384 7.846832 42.891418 -4.439800 5.047120 -5.790600 -26.282199 -9.636377 1.428021 -35.508399 -14.183148 -3.325546 -34.702091 -77.527408 22.575115 -3.807660 3.080055 0.548900 0.140720 -0.122110 0.058090 21.291817 12.901939 6.186281 51.759663 4.188685 -4.487727 3.823332 10.931207 -0.406898 2.222744 -1.022658 -0.421000 0.396420 0.223890 -0.252800 
0.451990 18.204070 -3.629860 -8.181726 -16.568699 -2.019733 -14.974219 11.674889 1.802182 6.966704 -0.736109 -6.057228 -10.781046 7.123237 11.806456 -0.573728 4.750176 2.954148 0.145530 -0.087020 0.126420 19.073013 -7.712918 6.844932 13.431242 24.790640 -49.822794 -15.154095 -0.550825 87.241788 -2.381831 -12.676249 0.375352 0.081990 0.252840 0.012220 -5.202555 -1.721234 -8.882156 24.945118 -5.056592 20.022240 -10.207179 0.708048 4.177573 2.018560 -7.413435 -9.599903 -19.881814 8.591775 44.431756 -4.114230 5.197570 -7.259340 -26.095742 -10.312556 1.776211 -35.238195 -14.291415 -3.609823 -32.374971 -81.238045 21.781300 -3.758233 3.062893 0.596300 0.091320 -0.078790 0.040300 20.853966 13.859954 6.688962 51.724086 4.043608 -4.917868 3.825828 12.260890 -0.380365 2.207150 -0.997458 -0.407320 0.393000 0.220300 -0.268420 
0.461920 18.264620 -3.605330 -7.754492 -17.805626 -2.561497 -14.966274 11.764678 1.894513 6.499947 -0.637450 -5.784179 -10.905410 7.100620 11.665889 -0.570820 4.717781 2.941724 0.184680 -0.045190 0.163350 19.039119 -7.885217 6.680592 12.786149 23.876957 -48.256555 -15.081266 -0.436909 85.971636 -2.358356 -12.438786 0.420712 0.092030 0.197610 0.017410 -5.169520 -1.681169 -8.851370 24.687984 -4.771628 21.058712 -10.450077 1.112266 4.521009 2.127688 -7.480060 -10.114853 -20.781024 8.980380 45.935158 -3.953950 5.126770 -8.611580 -25.886284 -11.120170 2.023528 -34.829723 -14.832726 -3.702793 -30.083749 -83.392309 20.458354 -3.705932 3.054670 0.634970 0.045090 -0.031150 0.032630 20.485708 14.843374 7.198121 51.435959 3.937181 -5.213556 4.303640 13.364888 -0.325797 2.198055 -0.985835 -0.384600 0.383470 0.204980 -0.277920 
